<mxfile host="app.diagrams.net" agent="Mozilla/5.0 (Windows NT 10.0; Win64; x64) AppleWebKit/537.36 (KHTML, like Gecko) Chrome/132.0.0.0 Safari/537.36" version="26.0.14">
  <diagram name="Page-1" id="CDCAJPO_uJfIYwjNW68t">
    <mxGraphModel dx="1050" dy="551" grid="1" gridSize="10" guides="1" tooltips="1" connect="1" arrows="1" fold="1" page="1" pageScale="1" pageWidth="850" pageHeight="1100" math="0" shadow="0">
      <root>
        <mxCell id="0" />
        <mxCell id="1" parent="0" />
        <mxCell id="PlM9g3wY8y7QjP6YCgaj-52" style="edgeStyle=orthogonalEdgeStyle;rounded=0;orthogonalLoop=1;jettySize=auto;html=1;exitX=0;exitY=0.75;exitDx=0;exitDy=0;exitPerimeter=0;entryX=1;entryY=0.5;entryDx=0;entryDy=0;" parent="1" source="PlM9g3wY8y7QjP6YCgaj-3" target="PlM9g3wY8y7QjP6YCgaj-26" edge="1">
          <mxGeometry relative="1" as="geometry">
            <Array as="points">
              <mxPoint x="420" y="455" />
              <mxPoint x="420" y="195" />
            </Array>
          </mxGeometry>
        </mxCell>
        <mxCell id="PlM9g3wY8y7QjP6YCgaj-3" value="" style="verticalLabelPosition=bottom;shadow=0;dashed=0;align=center;html=1;verticalAlign=top;shape=mxgraph.electrical.logic_gates.logic_gate;operation=and;" parent="1" vertex="1">
          <mxGeometry x="650" y="410" width="100" height="60" as="geometry" />
        </mxCell>
        <mxCell id="PlM9g3wY8y7QjP6YCgaj-49" style="edgeStyle=orthogonalEdgeStyle;rounded=0;orthogonalLoop=1;jettySize=auto;html=1;exitX=0;exitY=0.25;exitDx=0;exitDy=0;exitPerimeter=0;entryX=1;entryY=0.5;entryDx=0;entryDy=0;" parent="1" source="PlM9g3wY8y7QjP6YCgaj-5" target="PlM9g3wY8y7QjP6YCgaj-26" edge="1">
          <mxGeometry relative="1" as="geometry">
            <Array as="points">
              <mxPoint x="140" y="375" />
              <mxPoint x="140" y="195" />
            </Array>
          </mxGeometry>
        </mxCell>
        <mxCell id="PlM9g3wY8y7QjP6YCgaj-5" value="" style="verticalLabelPosition=bottom;shadow=0;dashed=0;align=center;html=1;verticalAlign=top;shape=mxgraph.electrical.logic_gates.logic_gate;operation=and;" parent="1" vertex="1">
          <mxGeometry x="510" y="360" width="100" height="60" as="geometry" />
        </mxCell>
        <mxCell id="PlM9g3wY8y7QjP6YCgaj-47" style="edgeStyle=orthogonalEdgeStyle;rounded=0;orthogonalLoop=1;jettySize=auto;html=1;exitX=0;exitY=0.25;exitDx=0;exitDy=0;exitPerimeter=0;entryX=1;entryY=0.5;entryDx=0;entryDy=0;" parent="1" source="PlM9g3wY8y7QjP6YCgaj-7" target="PlM9g3wY8y7QjP6YCgaj-22" edge="1">
          <mxGeometry relative="1" as="geometry">
            <Array as="points">
              <mxPoint x="140" y="295" />
              <mxPoint x="140" y="165" />
            </Array>
          </mxGeometry>
        </mxCell>
        <mxCell id="PlM9g3wY8y7QjP6YCgaj-48" style="edgeStyle=orthogonalEdgeStyle;rounded=0;orthogonalLoop=1;jettySize=auto;html=1;exitX=0;exitY=0.75;exitDx=0;exitDy=0;exitPerimeter=0;entryX=1;entryY=0.5;entryDx=0;entryDy=0;" parent="1" source="PlM9g3wY8y7QjP6YCgaj-7" target="PlM9g3wY8y7QjP6YCgaj-26" edge="1">
          <mxGeometry relative="1" as="geometry">
            <Array as="points">
              <mxPoint x="150" y="325" />
              <mxPoint x="150" y="195" />
            </Array>
          </mxGeometry>
        </mxCell>
        <mxCell id="PlM9g3wY8y7QjP6YCgaj-7" value="" style="verticalLabelPosition=bottom;shadow=0;dashed=0;align=center;html=1;verticalAlign=top;shape=mxgraph.electrical.logic_gates.logic_gate;operation=and;" parent="1" vertex="1">
          <mxGeometry x="360" y="280" width="100" height="60" as="geometry" />
        </mxCell>
        <mxCell id="PlM9g3wY8y7QjP6YCgaj-46" style="edgeStyle=orthogonalEdgeStyle;rounded=0;orthogonalLoop=1;jettySize=auto;html=1;exitX=0;exitY=0.75;exitDx=0;exitDy=0;exitPerimeter=0;entryX=1;entryY=0.5;entryDx=0;entryDy=0;" parent="1" source="PlM9g3wY8y7QjP6YCgaj-9" target="PlM9g3wY8y7QjP6YCgaj-26" edge="1">
          <mxGeometry relative="1" as="geometry" />
        </mxCell>
        <mxCell id="PlM9g3wY8y7QjP6YCgaj-9" value="" style="verticalLabelPosition=bottom;shadow=0;dashed=0;align=center;html=1;verticalAlign=top;shape=mxgraph.electrical.logic_gates.logic_gate;operation=and;" parent="1" vertex="1">
          <mxGeometry x="240" y="200" width="100" height="60" as="geometry" />
        </mxCell>
        <mxCell id="PlM9g3wY8y7QjP6YCgaj-12" value="" style="verticalLabelPosition=bottom;shadow=0;dashed=0;align=center;html=1;verticalAlign=top;shape=mxgraph.electrical.logic_gates.logic_gate;operation=and;" parent="1" vertex="1">
          <mxGeometry x="240" y="120" width="100" height="60" as="geometry" />
        </mxCell>
        <mxCell id="qnT9fH1vpkbcBZkhABx--9" style="edgeStyle=orthogonalEdgeStyle;rounded=0;orthogonalLoop=1;jettySize=auto;html=1;exitX=1;exitY=0.5;exitDx=0;exitDy=0;exitPerimeter=0;entryX=0;entryY=0.5;entryDx=0;entryDy=0;" edge="1" parent="1" source="PlM9g3wY8y7QjP6YCgaj-14" target="PlM9g3wY8y7QjP6YCgaj-40">
          <mxGeometry relative="1" as="geometry" />
        </mxCell>
        <mxCell id="PlM9g3wY8y7QjP6YCgaj-14" value="" style="verticalLabelPosition=bottom;shadow=0;dashed=0;align=center;html=1;verticalAlign=top;shape=mxgraph.electrical.logic_gates.logic_gate;operation=or;" parent="1" vertex="1">
          <mxGeometry x="800" y="350" width="100" height="60" as="geometry" />
        </mxCell>
        <mxCell id="PlM9g3wY8y7QjP6YCgaj-16" value="" style="verticalLabelPosition=bottom;shadow=0;dashed=0;align=center;html=1;verticalAlign=top;shape=mxgraph.electrical.logic_gates.logic_gate;operation=or;" parent="1" vertex="1">
          <mxGeometry x="650" y="290" width="100" height="60" as="geometry" />
        </mxCell>
        <mxCell id="PlM9g3wY8y7QjP6YCgaj-18" value="" style="verticalLabelPosition=bottom;shadow=0;dashed=0;align=center;html=1;verticalAlign=top;shape=mxgraph.electrical.logic_gates.logic_gate;operation=or;" parent="1" vertex="1">
          <mxGeometry x="510" y="220" width="100" height="60" as="geometry" />
        </mxCell>
        <mxCell id="PlM9g3wY8y7QjP6YCgaj-20" value="" style="verticalLabelPosition=bottom;shadow=0;dashed=0;align=center;html=1;verticalAlign=top;shape=mxgraph.electrical.logic_gates.logic_gate;operation=or;" parent="1" vertex="1">
          <mxGeometry x="375" y="165" width="100" height="60" as="geometry" />
        </mxCell>
        <mxCell id="PlM9g3wY8y7QjP6YCgaj-21" value="a[1]" style="text;html=1;align=center;verticalAlign=middle;whiteSpace=wrap;rounded=0;" parent="1" vertex="1">
          <mxGeometry y="120.00076923076917" width="60" height="30" as="geometry" />
        </mxCell>
        <mxCell id="PlM9g3wY8y7QjP6YCgaj-22" value="b[0]" style="text;html=1;align=center;verticalAlign=middle;whiteSpace=wrap;rounded=0;" parent="1" vertex="1">
          <mxGeometry y="150" width="60" height="30" as="geometry" />
        </mxCell>
        <mxCell id="PlM9g3wY8y7QjP6YCgaj-42" style="edgeStyle=orthogonalEdgeStyle;rounded=0;orthogonalLoop=1;jettySize=auto;html=1;exitX=0;exitY=0.5;exitDx=0;exitDy=0;exitPerimeter=0;entryX=1;entryY=0.5;entryDx=0;entryDy=0;" parent="1" source="PlM9g3wY8y7QjP6YCgaj-24" target="PlM9g3wY8y7QjP6YCgaj-25" edge="1">
          <mxGeometry relative="1" as="geometry" />
        </mxCell>
        <mxCell id="PlM9g3wY8y7QjP6YCgaj-24" value="" style="verticalLabelPosition=bottom;shadow=0;dashed=0;align=center;html=1;verticalAlign=top;shape=mxgraph.electrical.logic_gates.inverter_2" parent="1" vertex="1">
          <mxGeometry x="90" y="95" width="40" height="20" as="geometry" />
        </mxCell>
        <mxCell id="PlM9g3wY8y7QjP6YCgaj-25" value="a[0]" style="text;html=1;align=center;verticalAlign=middle;whiteSpace=wrap;rounded=0;" parent="1" vertex="1">
          <mxGeometry y="90" width="60" height="30" as="geometry" />
        </mxCell>
        <mxCell id="PlM9g3wY8y7QjP6YCgaj-26" value="b[1]" style="text;html=1;align=center;verticalAlign=middle;whiteSpace=wrap;rounded=0;" parent="1" vertex="1">
          <mxGeometry y="180" width="60" height="30" as="geometry" />
        </mxCell>
        <mxCell id="PlM9g3wY8y7QjP6YCgaj-41" style="edgeStyle=orthogonalEdgeStyle;rounded=0;orthogonalLoop=1;jettySize=auto;html=1;exitX=0;exitY=0.5;exitDx=0;exitDy=0;exitPerimeter=0;entryX=1;entryY=0.5;entryDx=0;entryDy=0;" parent="1" source="PlM9g3wY8y7QjP6YCgaj-28" target="PlM9g3wY8y7QjP6YCgaj-21" edge="1">
          <mxGeometry relative="1" as="geometry" />
        </mxCell>
        <mxCell id="PlM9g3wY8y7QjP6YCgaj-28" value="" style="verticalLabelPosition=bottom;shadow=0;dashed=0;align=center;html=1;verticalAlign=top;shape=mxgraph.electrical.logic_gates.inverter_2" parent="1" vertex="1">
          <mxGeometry x="90" y="125" width="40" height="20" as="geometry" />
        </mxCell>
        <mxCell id="PlM9g3wY8y7QjP6YCgaj-32" style="edgeStyle=orthogonalEdgeStyle;rounded=0;orthogonalLoop=1;jettySize=auto;html=1;exitX=1;exitY=0.5;exitDx=0;exitDy=0;exitPerimeter=0;entryX=0;entryY=0.25;entryDx=0;entryDy=0;entryPerimeter=0;" parent="1" source="PlM9g3wY8y7QjP6YCgaj-12" target="PlM9g3wY8y7QjP6YCgaj-20" edge="1">
          <mxGeometry relative="1" as="geometry" />
        </mxCell>
        <mxCell id="PlM9g3wY8y7QjP6YCgaj-40" value="&lt;b&gt;&lt;font style=&quot;font-size: 20px; color: rgb(0, 255, 0);&quot;&gt;GREEN&lt;/font&gt;&lt;/b&gt;" style="text;html=1;align=center;verticalAlign=middle;whiteSpace=wrap;rounded=0;" parent="1" vertex="1">
          <mxGeometry x="920" y="365" width="70" height="30" as="geometry" />
        </mxCell>
        <mxCell id="PlM9g3wY8y7QjP6YCgaj-43" style="edgeStyle=orthogonalEdgeStyle;rounded=0;orthogonalLoop=1;jettySize=auto;html=1;exitX=1;exitY=0.5;exitDx=0;exitDy=0;exitPerimeter=0;entryX=0;entryY=0.25;entryDx=0;entryDy=0;entryPerimeter=0;endArrow=none;startFill=0;" parent="1" source="PlM9g3wY8y7QjP6YCgaj-24" target="PlM9g3wY8y7QjP6YCgaj-12" edge="1">
          <mxGeometry relative="1" as="geometry" />
        </mxCell>
        <mxCell id="PlM9g3wY8y7QjP6YCgaj-44" style="edgeStyle=orthogonalEdgeStyle;rounded=0;orthogonalLoop=1;jettySize=auto;html=1;exitX=1;exitY=0.5;exitDx=0;exitDy=0;exitPerimeter=0;entryX=0;entryY=0.75;entryDx=0;entryDy=0;entryPerimeter=0;endArrow=none;startFill=0;" parent="1" source="PlM9g3wY8y7QjP6YCgaj-28" target="PlM9g3wY8y7QjP6YCgaj-12" edge="1">
          <mxGeometry relative="1" as="geometry">
            <Array as="points">
              <mxPoint x="160" y="135" />
              <mxPoint x="160" y="165" />
            </Array>
          </mxGeometry>
        </mxCell>
        <mxCell id="PlM9g3wY8y7QjP6YCgaj-45" style="edgeStyle=orthogonalEdgeStyle;rounded=0;orthogonalLoop=1;jettySize=auto;html=1;exitX=0;exitY=0.25;exitDx=0;exitDy=0;exitPerimeter=0;entryX=1;entryY=0.5;entryDx=0;entryDy=0;entryPerimeter=0;endArrow=none;startFill=0;" parent="1" source="PlM9g3wY8y7QjP6YCgaj-9" target="PlM9g3wY8y7QjP6YCgaj-24" edge="1">
          <mxGeometry relative="1" as="geometry" />
        </mxCell>
        <mxCell id="PlM9g3wY8y7QjP6YCgaj-50" style="edgeStyle=orthogonalEdgeStyle;rounded=0;orthogonalLoop=1;jettySize=auto;html=1;exitX=0;exitY=0.75;exitDx=0;exitDy=0;exitPerimeter=0;entryX=1;entryY=0.5;entryDx=0;entryDy=0;entryPerimeter=0;" parent="1" source="PlM9g3wY8y7QjP6YCgaj-5" target="PlM9g3wY8y7QjP6YCgaj-28" edge="1">
          <mxGeometry relative="1" as="geometry">
            <Array as="points">
              <mxPoint x="160" y="405" />
              <mxPoint x="160" y="135" />
            </Array>
          </mxGeometry>
        </mxCell>
        <mxCell id="PlM9g3wY8y7QjP6YCgaj-51" style="edgeStyle=orthogonalEdgeStyle;rounded=0;orthogonalLoop=1;jettySize=auto;html=1;exitX=0;exitY=0.25;exitDx=0;exitDy=0;exitPerimeter=0;entryX=1;entryY=0.5;entryDx=0;entryDy=0;entryPerimeter=0;" parent="1" source="PlM9g3wY8y7QjP6YCgaj-3" target="PlM9g3wY8y7QjP6YCgaj-28" edge="1">
          <mxGeometry relative="1" as="geometry">
            <Array as="points">
              <mxPoint x="550" y="425" />
              <mxPoint x="550" y="135" />
            </Array>
          </mxGeometry>
        </mxCell>
        <mxCell id="qnT9fH1vpkbcBZkhABx--1" style="edgeStyle=orthogonalEdgeStyle;rounded=0;orthogonalLoop=1;jettySize=auto;html=1;exitX=1;exitY=0.5;exitDx=0;exitDy=0;exitPerimeter=0;entryX=0;entryY=0.75;entryDx=0;entryDy=0;entryPerimeter=0;" edge="1" parent="1" source="PlM9g3wY8y7QjP6YCgaj-9" target="PlM9g3wY8y7QjP6YCgaj-20">
          <mxGeometry relative="1" as="geometry" />
        </mxCell>
        <mxCell id="qnT9fH1vpkbcBZkhABx--3" style="edgeStyle=orthogonalEdgeStyle;rounded=0;orthogonalLoop=1;jettySize=auto;html=1;exitX=1;exitY=0.5;exitDx=0;exitDy=0;exitPerimeter=0;entryX=0;entryY=0.75;entryDx=0;entryDy=0;entryPerimeter=0;" edge="1" parent="1" source="PlM9g3wY8y7QjP6YCgaj-7" target="PlM9g3wY8y7QjP6YCgaj-18">
          <mxGeometry relative="1" as="geometry" />
        </mxCell>
        <mxCell id="qnT9fH1vpkbcBZkhABx--4" style="edgeStyle=orthogonalEdgeStyle;rounded=0;orthogonalLoop=1;jettySize=auto;html=1;exitX=1;exitY=0.5;exitDx=0;exitDy=0;exitPerimeter=0;entryX=0;entryY=0.25;entryDx=0;entryDy=0;entryPerimeter=0;" edge="1" parent="1" source="PlM9g3wY8y7QjP6YCgaj-20" target="PlM9g3wY8y7QjP6YCgaj-18">
          <mxGeometry relative="1" as="geometry" />
        </mxCell>
        <mxCell id="qnT9fH1vpkbcBZkhABx--5" style="edgeStyle=orthogonalEdgeStyle;rounded=0;orthogonalLoop=1;jettySize=auto;html=1;exitX=1;exitY=0.5;exitDx=0;exitDy=0;exitPerimeter=0;entryX=0;entryY=0.75;entryDx=0;entryDy=0;entryPerimeter=0;" edge="1" parent="1" source="PlM9g3wY8y7QjP6YCgaj-5" target="PlM9g3wY8y7QjP6YCgaj-16">
          <mxGeometry relative="1" as="geometry" />
        </mxCell>
        <mxCell id="qnT9fH1vpkbcBZkhABx--6" style="edgeStyle=orthogonalEdgeStyle;rounded=0;orthogonalLoop=1;jettySize=auto;html=1;exitX=1;exitY=0.5;exitDx=0;exitDy=0;exitPerimeter=0;entryX=0;entryY=0.25;entryDx=0;entryDy=0;entryPerimeter=0;" edge="1" parent="1" source="PlM9g3wY8y7QjP6YCgaj-18" target="PlM9g3wY8y7QjP6YCgaj-16">
          <mxGeometry relative="1" as="geometry" />
        </mxCell>
        <mxCell id="qnT9fH1vpkbcBZkhABx--7" style="edgeStyle=orthogonalEdgeStyle;rounded=0;orthogonalLoop=1;jettySize=auto;html=1;exitX=1;exitY=0.5;exitDx=0;exitDy=0;exitPerimeter=0;entryX=0;entryY=0.75;entryDx=0;entryDy=0;entryPerimeter=0;" edge="1" parent="1" source="PlM9g3wY8y7QjP6YCgaj-3" target="PlM9g3wY8y7QjP6YCgaj-14">
          <mxGeometry relative="1" as="geometry" />
        </mxCell>
        <mxCell id="qnT9fH1vpkbcBZkhABx--8" style="edgeStyle=orthogonalEdgeStyle;rounded=0;orthogonalLoop=1;jettySize=auto;html=1;exitX=1;exitY=0.5;exitDx=0;exitDy=0;exitPerimeter=0;entryX=0;entryY=0.25;entryDx=0;entryDy=0;entryPerimeter=0;" edge="1" parent="1" source="PlM9g3wY8y7QjP6YCgaj-16" target="PlM9g3wY8y7QjP6YCgaj-14">
          <mxGeometry relative="1" as="geometry" />
        </mxCell>
      </root>
    </mxGraphModel>
  </diagram>
</mxfile>
